<svg xmlns="http://www.w3.org/2000/svg" xmlns:xlink="http://www.w3.org/1999/xlink" version="1.1" width="256" height="256" viewBox="0 0 256 256" xml:space="preserve">

<defs>
</defs>
<g style="stroke: none; stroke-width: 0; stroke-dasharray: none; stroke-linecap: butt; stroke-linejoin: miter; stroke-miterlimit: 10; fill: none; fill-rule: nonzero; opacity: 1;" transform="translate(1.4065934065934016 1.4065934065934016) scale(2.81 2.81)" >
	<path d="M 45 90.001 c -12.038 0 -23.344 -4.676 -31.834 -13.166 C 4.675 68.344 -0.001 57.038 -0.001 45 s 4.676 -23.344 13.167 -31.834 c 17.553 -17.552 46.115 -17.553 63.669 0 v 0 c 17.553 17.553 17.553 46.114 0 63.669 C 68.343 85.325 57.037 90.001 45 90.001 z M 45 5.998 c -9.992 0 -19.984 3.804 -27.591 11.41 C 10.051 24.766 5.999 34.565 5.999 45 c 0 10.436 4.052 20.235 11.409 27.593 C 24.766 79.949 34.565 84.001 45 84.001 c 10.435 0 20.235 -4.052 27.593 -11.409 c 15.213 -15.215 15.213 -39.97 0 -55.184 C 64.985 9.802 54.992 5.998 45 5.998 z M 45.036 76.981 c -5.819 0 -11.683 -1.601 -16.937 -4.877 c -0.776 -0.484 -1.289 -1.296 -1.393 -2.205 c -0.104 -0.909 0.212 -1.815 0.859 -2.462 l 39.872 -39.872 c 0.646 -0.647 1.548 -0.966 2.462 -0.859 c 0.909 0.104 1.721 0.617 2.205 1.393 c 7.909 12.684 6.053 28.923 -4.515 39.491 l 0 0 l 0 0 C 61.401 73.78 53.264 76.981 45.036 76.981 z M 34.679 68.807 c 9.676 4.228 21.006 2.202 28.668 -5.46 l 0 0 c 7.661 -7.662 9.685 -18.995 5.46 -28.667 L 34.679 68.807 z M 20.442 63.314 c -0.113 0 -0.227 -0.007 -0.341 -0.02 c -0.909 -0.104 -1.721 -0.617 -2.205 -1.393 C 9.985 49.217 11.842 32.977 22.41 22.41 v 0 c 6.025 -6.026 14.048 -9.344 22.59 -9.344 c 5.991 0 11.835 1.67 16.902 4.83 c 0.776 0.484 1.289 1.296 1.393 2.205 c 0.104 0.909 -0.212 1.815 -0.859 2.462 L 22.563 62.435 C 21.997 63.001 21.233 63.314 20.442 63.314 z M 45 19.066 c -6.939 0 -13.455 2.694 -18.348 7.586 v 0 c -7.662 7.661 -9.685 18.995 -5.46 28.668 l 34.122 -34.123 C 52.077 19.796 48.57 19.066 45 19.066 z M 24.531 24.531 h 0.01 H 24.531 z" style="stroke: none; stroke-width: 1; stroke-dasharray: none; stroke-linecap: butt; stroke-linejoin: miter; stroke-miterlimit: 10; fill: rgb(229,57,57); fill-rule: nonzero; opacity: 1;" transform=" matrix(1 0 0 1 0 0) " stroke-linecap="round" />
</g>
</svg>